<?xml version="1.0" encoding="utf-8"?>
<!-- Generator: Adobe Illustrator 24.0.2, SVG Export Plug-In . SVG Version: 6.00 Build 0)  -->
<svg version="1.1" id="Capa_1" xmlns="http://www.w3.org/2000/svg" xmlns:xlink="http://www.w3.org/1999/xlink" x="0px" y="0px"
	 viewBox="0 0 800 800" style="enable-background:new 0 0 800 800;" xml:space="preserve">
<style type="text/css">
	.st0{stroke:#000000;stroke-miterlimit:10;}
</style>
<symbol  id="madre_tierra" viewBox="-56.39 -52.1 112.27 104.2">
	<polygon points="-1.87,-52.1 1.36,-52.1 1.36,-20.8 3.34,-13.08 -0.43,-19.72 -3.31,-12 	"/>
	<path d="M6.03-21.52C6.32-18.42,7.97-4.41,18.96,2.37c3.59,2.22,6.95,2.89,10.41,3.59c1.64,0.33,21.59,4.19,25.68-2.87
		c3.9-6.74-6.24-24.1-21.37-28.91C20.45-30.03,8.48-23.02,6.03-21.52z"/>
	<path d="M-0.44,52.1c-3.72-3.03-12.55-11.12-14.72-23.88c-0.77-4.53-0.46-8.21-0.18-10.23C-14.04,8.5-8.15-4.45-0.97-4.82
		c7.79-0.4,16.45,14.07,16.7,27.11C16.05,39.59,1.52,50.66-0.44,52.1z"/>
	<path class="st0" d="M-55.74,2.9c1.95,6.16,21.68,8.29,34.83,0.36c0.77-0.46,3.24-2,5.93-4.67c4.66-4.63,11.73-14.42,9.16-20.11
		c-3.35-7.41-23.5-8.76-35.55-0.18c-6.34,4.51-9.23,10.91-13.47,20.29C-55.73,0.55-56.13,1.68-55.74,2.9z"/>
</symbol>
<use xlink:href="#madre_tierra"  width="112.27" height="104.2" id="XMLID_1_" x="-56.39" y="-52.1" transform="matrix(1.5202 0 0 -1.5202 401.005 400)" style="overflow:visible;"/>
</svg>
